<svg width="29" height="29" viewBox="0 0 29 29" fill="none" xmlns="http://www.w3.org/2000/svg">
<circle cx="14.5" cy="14.5" r="14.5" fill="#262626"/>
<rect x="9" y="10" width="11" height="10" fill="#9B9B9B"/>
<path d="M7 14.5C7 13.4875 7.19817 12.5055 7.58952 11.5806C7.9672 10.6874 8.50788 9.88556 9.19674 9.19672C9.88543 8.50787 10.6875 7.96719 11.5807 7.58951C12.5055 7.19817 13.4875 7 14.5002 7C15.5126 7 16.4948 7.19817 17.4195 7.58951C18.3127 7.96719 19.1147 8.50787 19.8034 9.19672C20.4921 9.88556 21.0328 10.6872 21.4106 11.5806C21.8017 12.5055 22 13.4876 22 14.5C22 15.5124 21.8017 16.4945 21.4105 17.4194C21.0326 18.3124 20.4919 19.1146 19.8033 19.8033C19.1146 20.492 18.3125 21.0328 17.4193 21.4107C16.4946 21.8017 15.5125 22 14.5001 22C13.4875 22 12.5054 21.8018 11.5805 21.4107C10.6875 21.0328 9.88526 20.4921 9.19657 19.8033C8.50772 19.1146 7.96703 18.3126 7.58935 17.4194C7.19817 16.4945 7 15.5125 7 14.5ZM14.9556 15.889C14.7921 15.889 14.6388 15.9534 14.5241 16.0704C14.2911 16.3084 14.2949 16.6914 14.5329 16.9246L16.4998 18.8511C16.5017 18.8529 16.5035 18.8546 16.5055 18.8564L16.51 18.8608C16.513 18.8636 16.5161 18.8664 16.5192 18.8693C16.5227 18.8724 16.5262 18.8754 16.5308 18.8794L16.5327 18.8809C16.5357 18.8834 16.5385 18.8859 16.5413 18.8883C16.5453 18.8916 16.5493 18.8946 16.5533 18.8978L16.5553 18.8993C16.5583 18.9016 16.5613 18.9039 16.5643 18.9061C16.5692 18.9096 16.574 18.9131 16.5787 18.9164C16.582 18.9188 16.5852 18.9209 16.5883 18.9229C16.5933 18.9263 16.5983 18.9294 16.6033 18.9326L16.6133 18.9388C16.6183 18.9418 16.6233 18.9446 16.6282 18.9473C16.6318 18.9493 16.6353 18.9513 16.6392 18.9534C16.644 18.9559 16.6488 18.9584 16.6537 18.9608C16.6577 18.9628 16.6617 18.9648 16.666 18.9668C16.6703 18.9689 16.6748 18.9708 16.6793 18.9728C16.684 18.9748 16.6887 18.9768 16.6933 18.9788C16.697 18.9803 16.7007 18.9818 16.7055 18.9834C16.7107 18.9854 16.7158 18.9873 16.7213 18.9894L16.7318 18.9929C16.7377 18.9948 16.7435 18.9968 16.7495 18.9986L16.759 19.0014C16.7653 19.0031 16.7715 19.0049 16.7778 19.0064L16.787 19.0086C16.7933 19.0101 16.7998 19.0114 16.8063 19.0128L16.8158 19.0144C16.8222 19.0156 16.8285 19.0166 16.8352 19.0176L16.8482 19.0193C16.8533 19.0199 16.8587 19.0206 16.8638 19.0211C16.8675 19.0214 16.8712 19.0216 16.8748 19.0219L16.8817 19.0224C16.8855 19.0228 16.8893 19.0231 16.893 19.0233C16.901 19.0236 16.909 19.0238 16.918 19.0239H16.9225H16.928C16.936 19.0239 16.944 19.0238 16.9518 19.0234C16.9557 19.0233 16.9595 19.0229 16.9633 19.0226L16.9702 19.0221C16.9738 19.0218 16.9775 19.0216 16.981 19.0213C16.9863 19.0208 16.9915 19.0201 16.9968 19.0193L17.01 19.0176C17.0165 19.0166 17.0228 19.0156 17.0307 19.0141L17.0387 19.0126C17.0452 19.0113 17.0515 19.0099 17.058 19.0084L17.0672 19.0063C17.0735 19.0048 17.0797 19.0031 17.0858 19.0014L17.0957 18.9986C17.1015 18.9969 17.1073 18.9949 17.1138 18.9928L17.124 18.9893C17.1292 18.9873 17.1345 18.9854 17.1397 18.9834C17.1438 18.9818 17.1478 18.9803 17.1518 18.9788C17.1565 18.9768 17.1612 18.9748 17.1657 18.9728C17.1702 18.9708 17.1747 18.9689 17.1793 18.9666C17.1833 18.9648 17.1873 18.9628 17.1913 18.9608C17.1962 18.9584 17.201 18.9559 17.206 18.9533C17.2097 18.9513 17.2132 18.9494 17.2167 18.9474C17.2217 18.9446 17.2268 18.9418 17.232 18.9386L17.2417 18.9328C17.2467 18.9294 17.2518 18.9263 17.2565 18.9231C17.2598 18.9209 17.263 18.9188 17.2662 18.9164C17.271 18.9131 17.2758 18.9098 17.2805 18.9063C17.2837 18.9039 17.2867 18.9016 17.2897 18.8993L17.2917 18.8978C17.2957 18.8946 17.2997 18.8916 17.3035 18.8884C17.3065 18.8859 17.3095 18.8836 17.3123 18.8811L17.3152 18.8786C17.3187 18.8756 17.3222 18.8724 17.3257 18.8694C17.3288 18.8666 17.3318 18.8638 17.3348 18.8609L17.3393 18.8566C17.3413 18.8549 17.3432 18.8531 17.345 18.8514L19.3119 16.9247C19.5498 16.6917 19.5538 16.3085 19.3207 16.0705C19.2061 15.9535 19.0529 15.8892 18.8892 15.8892C18.7302 15.8892 18.5802 15.9504 18.4665 16.0617L17.5262 16.9827V14.5278L17.5464 10.5836C17.548 10.2506 17.2785 9.97807 16.9453 9.9764H16.9423C16.611 9.9764 16.3401 10.2459 16.3383 10.5772L16.3181 14.523V16.9827L15.3779 16.0617C15.2648 15.9504 15.1146 15.889 14.9556 15.889ZM9.50658 12.5591C9.50658 12.7206 9.56942 12.8723 9.68342 12.9863C9.79759 13.1003 9.94926 13.1631 10.1106 13.1631C10.2721 13.1631 10.4236 13.1003 10.5378 12.9863L11.4736 12.0504V18.4198C11.4736 18.7529 11.7445 19.0238 12.0775 19.0238C12.4105 19.0238 12.6815 18.7529 12.6815 18.4198V12.0399L13.6196 12.9683C13.7336 13.081 13.8844 13.1428 14.0446 13.1428C14.2071 13.1428 14.3597 13.0793 14.4739 12.9638C14.5874 12.8491 14.6494 12.6971 14.6486 12.5361C14.6478 12.3746 14.5841 12.2233 14.4694 12.1099L12.5023 10.1629C12.5005 10.1609 12.4988 10.1594 12.4968 10.1577L12.493 10.1539C12.4893 10.1506 12.4857 10.1471 12.482 10.1437C12.479 10.1411 12.4762 10.1386 12.4732 10.1359L12.4682 10.1317C12.4653 10.1294 12.4628 10.1269 12.4598 10.1246C12.456 10.1212 12.452 10.1184 12.4478 10.1151L12.437 10.1066C12.432 10.1031 12.4268 10.0994 12.4218 10.0959L12.413 10.0901C12.4078 10.0866 12.4023 10.0829 12.3967 10.0796L12.3882 10.0741C12.3827 10.0707 12.3772 10.0679 12.3718 10.0649C12.3687 10.0629 12.3657 10.0614 12.3623 10.0594C12.357 10.0567 12.3517 10.0539 12.3455 10.0509C12.3422 10.0492 12.3388 10.0476 12.3355 10.0461C12.3307 10.0437 12.3255 10.0416 12.3205 10.0392C12.3163 10.0376 12.3122 10.0357 12.3078 10.0341C12.3035 10.0321 12.2988 10.0306 12.2945 10.0289C12.2897 10.0269 12.2848 10.0251 12.28 10.0234C12.2763 10.0221 12.2723 10.0207 12.2678 10.0192C12.2625 10.0176 12.2572 10.0157 12.2517 10.0141L12.2405 10.0107C12.2347 10.0094 12.229 10.0077 12.2232 10.0062L12.2127 10.0039C12.2065 10.0022 12.2003 10.0009 12.1942 10.0001L12.1823 9.99773C12.1767 9.99673 12.1712 9.99573 12.1655 9.99473C12.1625 9.9944 12.1597 9.99407 12.1567 9.99373L12.1502 9.99273C12.1457 9.9924 12.141 9.99173 12.1363 9.99107C12.1323 9.99073 12.128 9.9904 12.1238 9.99007L12.1163 9.98973C12.1133 9.9894 12.1103 9.98907 12.107 9.98907C12.097 9.9884 12.0873 9.9884 12.0772 9.9884C12.0673 9.9884 12.0573 9.9884 12.0473 9.98907C12.0438 9.98907 12.0407 9.9894 12.0373 9.98973L12.0292 9.9904C12.0255 9.99073 12.0217 9.99073 12.0178 9.99107C12.013 9.99173 12.0082 9.9924 12.0035 9.99307L11.9888 9.99473C11.983 9.99573 11.9772 9.99673 11.9713 9.99807C11.971 9.99807 11.9693 9.9984 11.9693 9.9984L11.9602 9.9999C11.9537 10.0012 11.9472 10.0026 11.941 10.0041L11.9315 10.0061C11.9252 10.0077 11.9188 10.0096 11.913 10.0112L11.911 10.0116C11.908 10.0126 11.9053 10.0132 11.9028 10.0142C11.897 10.0159 11.8915 10.0177 11.8855 10.0197L11.883 10.0204C11.88 10.0214 11.877 10.0224 11.8742 10.0234C11.8693 10.0254 11.8645 10.0269 11.8597 10.0289L11.8767 10.0722L11.8578 10.0296C11.854 10.0312 11.85 10.0329 11.8462 10.0344C11.8423 10.0357 11.8385 10.0377 11.8348 10.0392L11.8323 10.0402C11.8278 10.0422 11.8233 10.0441 11.8188 10.0464C11.8158 10.0477 11.8127 10.0494 11.8097 10.0509L11.8077 10.0519C11.8025 10.0546 11.7972 10.0571 11.792 10.0597C11.7893 10.0614 11.7868 10.0627 11.7842 10.0642L11.7825 10.0652C11.777 10.0682 11.7715 10.0711 11.7658 10.0747C11.7632 10.0761 11.7608 10.0777 11.7573 10.0799C11.7518 10.0834 11.7465 10.0867 11.741 10.0904L11.7325 10.0962C11.7273 10.0997 11.722 10.1034 11.7172 10.1072C11.7147 10.1089 11.7125 10.1107 11.7102 10.1124L11.7052 10.1162C11.7015 10.1192 11.6977 10.1221 11.6938 10.1254C11.6907 10.1281 11.6877 10.1306 11.6845 10.1332L11.6783 10.1387C11.6762 10.1404 11.674 10.1422 11.6717 10.1442C11.6642 10.1511 11.6568 10.1582 11.6498 10.1654L9.68342 12.1321C9.56942 12.2464 9.50658 12.3978 9.50658 12.5591Z" fill="#262626"/>
</svg>
