<svg width="17" height="19" viewBox="0 0 17 19" fill="none" xmlns="http://www.w3.org/2000/svg">
<path d="M7.35981 0.759995C6.63285 0.759995 6.02981 1.36304 6.02981 2.08999V2.92718C5.26726 3.21411 4.58454 3.64506 3.97543 4.16218L3.22138 3.74656C2.58509 3.39366 1.76281 3.6278 1.41043 4.26312L0.306058 6.25812C-0.0445675 6.8903 0.179101 7.71543 0.816684 8.06906L1.57074 8.49062C1.5227 8.82298 1.46981 9.15509 1.46981 9.49999C1.46981 9.84652 1.5282 10.1755 1.57668 10.5094L0.816684 10.9309C0.179101 11.2845 -0.0445675 12.1037 0.306058 12.7359L1.41043 14.7309C1.76281 15.3663 2.58507 15.6063 3.22138 15.2534L3.98138 14.8319C4.58961 15.3476 5.26876 15.7805 6.02981 16.0669V16.91C6.02981 17.637 6.63285 18.24 7.35981 18.24H9.63981C10.3668 18.24 10.9698 17.637 10.9698 16.91V16.0669C11.7309 15.7805 12.41 15.3476 13.0182 14.8319L13.7782 15.2534C14.4145 15.6063 15.2368 15.3663 15.5892 14.7309L16.6936 12.7359C17.0442 12.1037 16.8205 11.2845 16.1829 10.9309L15.4229 10.5094C15.4714 10.1755 15.5298 9.84652 15.5298 9.49999C15.5298 9.15509 15.4769 8.82298 15.4289 8.49062L16.1829 8.06906C16.8205 7.71543 17.0442 6.8903 16.6936 6.25812L15.5892 4.26312C15.2368 3.6278 14.4145 3.39366 13.7782 3.74656L13.0242 4.16218C12.4151 3.64506 11.7324 3.21412 10.9698 2.92718V2.08999C10.9698 1.36304 10.3668 0.759995 9.63981 0.759995H7.35981ZM7.35981 1.89999H9.63981C9.75493 1.89999 9.82981 1.97487 9.82981 2.08999V3.32499C9.8319 3.56557 10.0034 3.79513 10.2336 3.86531C11.1252 4.13896 11.9216 4.62267 12.5789 5.25468C12.7535 5.42503 13.043 5.46311 13.2557 5.34374L14.3364 4.74406C14.4365 4.68853 14.5356 4.71422 14.5917 4.81531L15.6961 6.81031C15.7539 6.91453 15.7236 7.01675 15.6248 7.07156L14.5442 7.67124C14.3353 7.78868 14.2169 8.04806 14.2651 8.28281C14.3471 8.67395 14.3898 9.0823 14.3898 9.49999C14.3898 9.91767 14.3471 10.3201 14.2651 10.7112C14.2142 10.9477 14.3331 11.2107 14.5442 11.3287L15.6248 11.9284C15.7236 11.9832 15.7539 12.0795 15.6961 12.1837L14.5917 14.1787C14.5356 14.2798 14.4365 14.3115 14.3364 14.2559L13.2557 13.6562C13.0442 13.5354 12.7549 13.5709 12.5789 13.7394C11.9216 14.3714 11.1252 14.8551 10.2336 15.1287C10.0015 15.1995 9.82939 15.4324 9.82981 15.675V16.91C9.82981 17.0251 9.75493 17.1 9.63981 17.1H7.35981C7.24469 17.1 7.16981 17.0251 7.16981 16.91V15.675C7.16981 15.4324 6.99807 15.1995 6.76606 15.1287C5.87439 14.8551 5.078 14.3714 4.42074 13.7394C4.24468 13.5709 3.95545 13.5354 3.74388 13.6562L2.66324 14.2559C2.56311 14.3115 2.464 14.2798 2.40793 14.1787L1.30356 12.1837C1.24576 12.0795 1.27599 11.9832 1.37481 11.9284L2.45543 11.3287C2.66654 11.2107 2.78539 10.9477 2.73449 10.7112C2.65254 10.3201 2.60981 9.91767 2.60981 9.49999C2.60981 9.0823 2.65252 8.67395 2.73449 8.28281C2.78269 8.04806 2.66434 7.78868 2.45543 7.67124L1.37481 7.07156C1.27599 7.01675 1.24576 6.91453 1.30356 6.81031L2.40793 4.81531C2.464 4.71422 2.56311 4.68853 2.66324 4.74406L3.74388 5.34374C3.95666 5.46311 4.24607 5.42503 4.42074 5.25468C5.078 4.62267 5.87439 4.13896 6.76606 3.86531C6.99619 3.79513 7.16772 3.56557 7.16981 3.32499V2.08999C7.16981 1.97487 7.24469 1.89999 7.35981 1.89999ZM8.49981 5.50999C6.30295 5.50999 4.50981 7.30311 4.50981 9.49999C4.50981 11.6969 6.30295 13.49 8.49981 13.49C10.6967 13.49 12.4898 11.6969 12.4898 9.49999C12.4898 7.30311 10.6967 5.50999 8.49981 5.50999ZM8.49981 6.64999C10.0806 6.64999 11.3498 7.91921 11.3498 9.49999C11.3498 11.0807 10.0806 12.35 8.49981 12.35C6.91905 12.35 5.64981 11.0807 5.64981 9.49999C5.64981 7.91921 6.91905 6.64999 8.49981 6.64999Z" fill="white"/>
</svg>
