<svg width="101" height="22" viewBox="0 0 101 22" fill="none" xmlns="http://www.w3.org/2000/svg">
<path d="M11 22C17.0751 22 22 17.0751 22 11C22 4.92487 17.0751 0 11 0C4.92487 0 0 4.92487 0 11C0 17.0751 4.92487 22 11 22Z" fill="black"/>
<path d="M12.7819 13.7245L8.29097 8.06925C8.22777 7.98941 8.09469 7.98941 8.03148 8.06925L3.54055 13.7245C3.50063 13.7744 3.49232 13.8426 3.52059 13.8991C3.54889 13.9574 3.6071 13.9939 3.67031 13.9939H4.66829V13.6613V13.3286C4.66829 13.2371 4.74314 13.1623 4.83462 13.1623C4.9261 13.1623 5.00095 13.2371 5.00095 13.3286V13.6613V13.9939H5.49994V13.6613V13.3286C5.49994 13.2371 5.57479 13.1623 5.66628 13.1623C5.75776 13.1623 5.83261 13.2371 5.83261 13.3286V13.6613V13.9939H6.3316V13.6613V13.3286C6.3316 13.2371 6.40645 13.1623 6.49793 13.1623C6.58941 13.1623 6.66426 13.2371 6.66426 13.3286V13.6613V13.9939H7.16325V13.6613V13.3286C7.16325 13.2371 7.2381 13.1623 7.32958 13.1623C7.42106 13.1623 7.49591 13.2371 7.49591 13.3286V13.6613V13.9939H7.9949V13.6613V13.3286C7.9949 13.2371 8.06975 13.1623 8.16123 13.1623C8.25272 13.1623 8.32757 13.2371 8.32757 13.3286V13.6613V13.9939H8.82656V13.6613V13.3286C8.82656 13.2371 8.90141 13.1623 8.99289 13.1623C9.08437 13.1623 9.15922 13.2371 9.15922 13.3286V13.6613V13.9939H9.65821V13.6613V13.3286C9.65821 13.2371 9.73306 13.1623 9.82454 13.1623C9.91602 13.1623 9.99087 13.2371 9.99087 13.3286V13.6613V13.9939H10.4899V13.6613V13.3286C10.4899 13.2371 10.5647 13.1623 10.6562 13.1623C10.7477 13.1623 10.8225 13.2371 10.8225 13.3286V13.6613V13.9939H11.3215V13.6613V13.3286C11.3215 13.2371 11.3964 13.1623 11.4878 13.1623C11.5793 13.1623 11.6542 13.2371 11.6542 13.3286V13.6613V13.9939H12.6522C12.7154 13.9939 12.7736 13.9574 12.8019 13.8991C12.8301 13.8426 12.8218 13.7744 12.7819 13.7245ZM6.83059 12.497C6.76738 12.497 6.70917 12.4604 6.68089 12.4022C6.65262 12.3456 6.66093 12.2774 6.70085 12.2275L8.0315 10.5642C8.0947 10.4844 8.22778 10.4844 8.29099 10.5642L9.62163 12.2275C9.66155 12.2774 9.66987 12.3456 9.64159 12.4022C9.6133 12.4604 9.55508 12.497 9.49188 12.497H6.83059Z" fill="white"/>
<path d="M18.5299 13.7245L14.039 8.06925C13.9758 7.98941 13.8427 7.98941 13.7795 8.06925L9.2886 13.7245C9.24868 13.7744 9.24036 13.8426 9.26864 13.8991C9.29693 13.9574 9.35515 13.9939 9.41835 13.9939H10.4163V13.6613V13.3286C10.4163 13.2371 10.4912 13.1623 10.5827 13.1623C10.6742 13.1623 10.749 13.2371 10.749 13.3286V13.6613V13.9939H11.248V13.6613V13.3286C11.248 13.2371 11.3228 13.1623 11.4143 13.1623C11.5058 13.1623 11.5807 13.2371 11.5807 13.3286V13.6613V13.9939H12.0796V13.6613V13.3286C12.0796 13.2371 12.1545 13.1623 12.246 13.1623C12.3375 13.1623 12.4123 13.2371 12.4123 13.3286V13.6613V13.9939H12.9113V13.6613V13.3286C12.9113 13.2371 12.9861 13.1623 13.0776 13.1623C13.1691 13.1623 13.244 13.2371 13.244 13.3286V13.6613V13.9939H13.743V13.6613V13.3286C13.743 13.2371 13.8178 13.1623 13.9093 13.1623C14.0008 13.1623 14.0756 13.2371 14.0756 13.3286V13.6613V13.9939H14.5746V13.6613V13.3286C14.5746 13.2371 14.6495 13.1623 14.7409 13.1623C14.8324 13.1623 14.9073 13.2371 14.9073 13.3286V13.6613V13.9939H15.4063V13.6613V13.3286C15.4063 13.2371 15.4811 13.1623 15.5726 13.1623C15.6641 13.1623 15.7389 13.2371 15.7389 13.3286V13.6613V13.9939H16.2379V13.6613V13.3286C16.2379 13.2371 16.3128 13.1623 16.4042 13.1623C16.4957 13.1623 16.5706 13.2371 16.5706 13.3286V13.6613V13.9939H17.0696V13.6613V13.3286C17.0696 13.2371 17.1444 13.1623 17.2359 13.1623C17.3274 13.1623 17.4022 13.2371 17.4022 13.3286V13.6613V13.9939H18.4002C18.4634 13.9939 18.5216 13.9574 18.5499 13.8991C18.5782 13.8426 18.5699 13.7744 18.5299 13.7245ZM12.5786 12.497C12.5154 12.497 12.4572 12.4604 12.4289 12.4022C12.4007 12.3456 12.409 12.2774 12.4489 12.2275L13.7795 10.5642C13.8427 10.4844 13.9758 10.4844 14.039 10.5642L15.3697 12.2275C15.4096 12.2774 15.4179 12.3456 15.3896 12.4022C15.3613 12.4604 15.3031 12.497 15.2399 12.497H12.5786Z" fill="white"/>
<path d="M34.9453 5.625L36.7969 11.3125L38.7969 5.625H40.5938V17H39.1875V12.4609L39.3047 7.71094L37.2031 13.8359H36.375L34.4453 7.875L34.5625 12.4609V17H33.1562V5.625H34.9453ZM51.6266 11.7422H46.8766V15.7734H52.4156V17H45.4312V5.625H52.3453V6.85938H46.8766V10.5156H51.6266V11.7422ZM65.05 6.85938H61.5344V17H60.1281V6.85938H56.6125V5.625H65.05V6.85938ZM73.1531 12.3594H70.8797V17H69.4422V5.625H72.7781C73.3094 5.63542 73.8094 5.71094 74.2781 5.85156C74.7469 5.99219 75.1557 6.20312 75.5047 6.48438C75.8589 6.76562 76.1349 7.11979 76.3328 7.54688C76.5359 7.96875 76.6375 8.46615 76.6375 9.03906C76.6375 9.40885 76.5828 9.7474 76.4734 10.0547C76.3693 10.362 76.2234 10.6406 76.0359 10.8906C75.8484 11.1406 75.6245 11.362 75.3641 11.5547C75.1036 11.7474 74.8172 11.9115 74.5047 12.0469L76.9188 16.9062L76.9109 17H75.3875L73.1531 12.3594ZM70.8797 11.1719H72.8172C73.1401 11.1667 73.4448 11.1172 73.7313 11.0234C74.0177 10.9245 74.2677 10.7839 74.4813 10.6016C74.7 10.4193 74.8719 10.1979 74.9969 9.9375C75.1219 9.67188 75.1844 9.36719 75.1844 9.02344C75.1844 8.65885 75.1245 8.34115 75.0047 8.07031C74.8849 7.79427 74.7182 7.5651 74.5047 7.38281C74.2911 7.19531 74.0359 7.05469 73.7391 6.96094C73.4474 6.86719 73.1271 6.81771 72.7781 6.8125H70.8797V11.1719ZM81.3969 5.625H88.2719V6.88281H85.5453V15.75H88.2719V17H81.3969V15.75H84.0609V6.88281H81.3969V5.625ZM100.773 13.5781C100.706 14.1042 100.57 14.5885 100.367 15.0312C100.164 15.4688 99.8984 15.8464 99.5703 16.1641C99.2474 16.4766 98.862 16.7214 98.4141 16.8984C97.9714 17.0703 97.4766 17.1562 96.9297 17.1562C96.4609 17.1562 96.0339 17.0911 95.6484 16.9609C95.2682 16.8255 94.9271 16.6406 94.625 16.4062C94.3281 16.1719 94.0703 15.8958 93.8516 15.5781C93.638 15.2604 93.4583 14.9141 93.3125 14.5391C93.1719 14.1641 93.0651 13.7708 92.9922 13.3594C92.9245 12.9479 92.888 12.5312 92.8828 12.1094V10.5234C92.888 10.1016 92.9245 9.6849 92.9922 9.27344C93.0651 8.86198 93.1719 8.46875 93.3125 8.09375C93.4583 7.71875 93.638 7.3724 93.8516 7.05469C94.0703 6.73177 94.3281 6.45312 94.625 6.21875C94.9271 5.98438 95.2682 5.80208 95.6484 5.67188C96.0286 5.53646 96.4557 5.46875 96.9297 5.46875C97.4974 5.46875 98.0052 5.55729 98.4531 5.73438C98.901 5.90625 99.2865 6.15365 99.6094 6.47656C99.9323 6.79427 100.19 7.17708 100.383 7.625C100.581 8.07292 100.711 8.56771 100.773 9.10938H99.3281C99.2812 8.76562 99.2005 8.44531 99.0859 8.14844C98.9714 7.85156 98.8177 7.59115 98.625 7.36719C98.4323 7.14323 98.1953 6.96875 97.9141 6.84375C97.638 6.71354 97.3099 6.64844 96.9297 6.64844C96.5859 6.64844 96.2812 6.70573 96.0156 6.82031C95.7552 6.92969 95.5286 7.08073 95.3359 7.27344C95.1484 7.46615 94.9896 7.6901 94.8594 7.94531C94.7344 8.20052 94.6328 8.47135 94.5547 8.75781C94.4766 9.04427 94.4193 9.33854 94.3828 9.64062C94.3516 9.9375 94.3359 10.2266 94.3359 10.5078V12.1094C94.3359 12.3906 94.3516 12.6823 94.3828 12.9844C94.4193 13.2812 94.4766 13.5755 94.5547 13.8672C94.6328 14.1536 94.7344 14.4245 94.8594 14.6797C94.9844 14.9349 95.1432 15.1615 95.3359 15.3594C95.5286 15.5521 95.7552 15.7057 96.0156 15.8203C96.276 15.9297 96.5807 15.9844 96.9297 15.9844C97.3099 15.9844 97.638 15.9245 97.9141 15.8047C98.1953 15.6849 98.4323 15.5182 98.625 15.3047C98.8177 15.0859 98.9714 14.8307 99.0859 14.5391C99.2005 14.2422 99.2812 13.9219 99.3281 13.5781H100.773Z" fill="black"/>
</svg>
