<svg width="102" height="28" viewBox="0 0 102 28" fill="none" xmlns="http://www.w3.org/2000/svg">
<path d="M11 25C17.0751 25 22 20.0751 22 14C22 7.92487 17.0751 3 11 3C4.92487 3 0 7.92487 0 14C0 20.0751 4.92487 25 11 25Z" fill="#60FFD9"/>
<path d="M12.7819 16.7245L8.29097 11.0692C8.22777 10.9894 8.09469 10.9894 8.03148 11.0692L3.54055 16.7245C3.50063 16.7744 3.49232 16.8426 3.52059 16.8991C3.54889 16.9574 3.6071 16.9939 3.67031 16.9939H4.66829V16.6613V16.3286C4.66829 16.2371 4.74314 16.1623 4.83462 16.1623C4.9261 16.1623 5.00095 16.2371 5.00095 16.3286V16.6613V16.9939H5.49994V16.6613V16.3286C5.49994 16.2371 5.57479 16.1623 5.66628 16.1623C5.75776 16.1623 5.83261 16.2371 5.83261 16.3286V16.6613V16.9939H6.3316V16.6613V16.3286C6.3316 16.2371 6.40645 16.1623 6.49793 16.1623C6.58941 16.1623 6.66426 16.2371 6.66426 16.3286V16.6613V16.9939H7.16325V16.6613V16.3286C7.16325 16.2371 7.2381 16.1623 7.32958 16.1623C7.42106 16.1623 7.49591 16.2371 7.49591 16.3286V16.6613V16.9939H7.9949V16.6613V16.3286C7.9949 16.2371 8.06975 16.1623 8.16123 16.1623C8.25272 16.1623 8.32757 16.2371 8.32757 16.3286V16.6613V16.9939H8.82656V16.6613V16.3286C8.82656 16.2371 8.90141 16.1623 8.99289 16.1623C9.08437 16.1623 9.15922 16.2371 9.15922 16.3286V16.6613V16.9939H9.65821V16.6613V16.3286C9.65821 16.2371 9.73306 16.1623 9.82454 16.1623C9.91602 16.1623 9.99087 16.2371 9.99087 16.3286V16.6613V16.9939H10.4899V16.6613V16.3286C10.4899 16.2371 10.5647 16.1623 10.6562 16.1623C10.7477 16.1623 10.8225 16.2371 10.8225 16.3286V16.6613V16.9939H11.3215V16.6613V16.3286C11.3215 16.2371 11.3964 16.1623 11.4878 16.1623C11.5793 16.1623 11.6542 16.2371 11.6542 16.3286V16.6613V16.9939H12.6522C12.7154 16.9939 12.7736 16.9574 12.8019 16.8991C12.8301 16.8426 12.8218 16.7744 12.7819 16.7245ZM6.83059 15.497C6.76738 15.497 6.70917 15.4604 6.68089 15.4022C6.65262 15.3456 6.66093 15.2774 6.70085 15.2275L8.0315 13.5642C8.0947 13.4844 8.22778 13.4844 8.29099 13.5642L9.62163 15.2275C9.66155 15.2774 9.66987 15.3456 9.64159 15.4022C9.6133 15.4604 9.55508 15.497 9.49188 15.497H6.83059Z" fill="black"/>
<path d="M18.5299 16.7245L14.039 11.0692C13.9758 10.9894 13.8427 10.9894 13.7795 11.0692L9.2886 16.7245C9.24868 16.7744 9.24036 16.8426 9.26864 16.8991C9.29693 16.9574 9.35515 16.9939 9.41835 16.9939H10.4163V16.6613V16.3286C10.4163 16.2371 10.4912 16.1623 10.5827 16.1623C10.6742 16.1623 10.749 16.2371 10.749 16.3286V16.6613V16.9939H11.248V16.6613V16.3286C11.248 16.2371 11.3228 16.1623 11.4143 16.1623C11.5058 16.1623 11.5807 16.2371 11.5807 16.3286V16.6613V16.9939H12.0796V16.6613V16.3286C12.0796 16.2371 12.1545 16.1623 12.246 16.1623C12.3375 16.1623 12.4123 16.2371 12.4123 16.3286V16.6613V16.9939H12.9113V16.6613V16.3286C12.9113 16.2371 12.9861 16.1623 13.0776 16.1623C13.1691 16.1623 13.244 16.2371 13.244 16.3286V16.6613V16.9939H13.743V16.6613V16.3286C13.743 16.2371 13.8178 16.1623 13.9093 16.1623C14.0008 16.1623 14.0756 16.2371 14.0756 16.3286V16.6613V16.9939H14.5746V16.6613V16.3286C14.5746 16.2371 14.6495 16.1623 14.7409 16.1623C14.8324 16.1623 14.9073 16.2371 14.9073 16.3286V16.6613V16.9939H15.4063V16.6613V16.3286C15.4063 16.2371 15.4811 16.1623 15.5726 16.1623C15.6641 16.1623 15.7389 16.2371 15.7389 16.3286V16.6613V16.9939H16.2379V16.6613V16.3286C16.2379 16.2371 16.3128 16.1623 16.4042 16.1623C16.4957 16.1623 16.5706 16.2371 16.5706 16.3286V16.6613V16.9939H17.0696V16.6613V16.3286C17.0696 16.2371 17.1444 16.1623 17.2359 16.1623C17.3274 16.1623 17.4022 16.2371 17.4022 16.3286V16.6613V16.9939H18.4002C18.4634 16.9939 18.5216 16.9574 18.5499 16.8991C18.5782 16.8426 18.5699 16.7744 18.5299 16.7245ZM12.5786 15.497C12.5154 15.497 12.4572 15.4604 12.4289 15.4022C12.4007 15.3456 12.409 15.2774 12.4489 15.2275L13.7795 13.5642C13.8427 13.4844 13.9758 13.4844 14.039 13.5642L15.3697 15.2275C15.4096 15.2774 15.4179 15.3456 15.3896 15.4022C15.3613 15.4604 15.3031 15.497 15.2399 15.497H12.5786Z" fill="black"/>
<path d="M34.9453 8.625L36.7969 14.3125L38.7969 8.625H40.5938V20H39.1875V15.4609L39.3047 10.7109L37.2031 16.8359H36.375L34.4453 10.875L34.5625 15.4609V20H33.1562V8.625H34.9453ZM51.6266 14.7422H46.8766V18.7734H52.4156V20H45.4312V8.625H52.3453V9.85938H46.8766V13.5156H51.6266V14.7422ZM65.05 9.85938H61.5344V20H60.1281V9.85938H56.6125V8.625H65.05V9.85938ZM73.1531 15.3594H70.8797V20H69.4422V8.625H72.7781C73.3094 8.63542 73.8094 8.71094 74.2781 8.85156C74.7469 8.99219 75.1557 9.20312 75.5047 9.48438C75.8589 9.76562 76.1349 10.1198 76.3328 10.5469C76.5359 10.9688 76.6375 11.4661 76.6375 12.0391C76.6375 12.4089 76.5828 12.7474 76.4734 13.0547C76.3693 13.362 76.2234 13.6406 76.0359 13.8906C75.8484 14.1406 75.6245 14.362 75.3641 14.5547C75.1036 14.7474 74.8172 14.9115 74.5047 15.0469L76.9188 19.9062L76.9109 20H75.3875L73.1531 15.3594ZM70.8797 14.1719H72.8172C73.1401 14.1667 73.4448 14.1172 73.7313 14.0234C74.0177 13.9245 74.2677 13.7839 74.4813 13.6016C74.7 13.4193 74.8719 13.1979 74.9969 12.9375C75.1219 12.6719 75.1844 12.3672 75.1844 12.0234C75.1844 11.6589 75.1245 11.3411 75.0047 11.0703C74.8849 10.7943 74.7182 10.5651 74.5047 10.3828C74.2911 10.1953 74.0359 10.0547 73.7391 9.96094C73.4474 9.86719 73.1271 9.81771 72.7781 9.8125H70.8797V14.1719ZM81.3969 8.625H88.2719V9.88281H85.5453V18.75H88.2719V20H81.3969V18.75H84.0609V9.88281H81.3969V8.625ZM100.773 16.5781C100.706 17.1042 100.57 17.5885 100.367 18.0312C100.164 18.4688 99.8984 18.8464 99.5703 19.1641C99.2474 19.4766 98.862 19.7214 98.4141 19.8984C97.9714 20.0703 97.4766 20.1562 96.9297 20.1562C96.4609 20.1562 96.0339 20.0911 95.6484 19.9609C95.2682 19.8255 94.9271 19.6406 94.625 19.4062C94.3281 19.1719 94.0703 18.8958 93.8516 18.5781C93.638 18.2604 93.4583 17.9141 93.3125 17.5391C93.1719 17.1641 93.0651 16.7708 92.9922 16.3594C92.9245 15.9479 92.888 15.5312 92.8828 15.1094V13.5234C92.888 13.1016 92.9245 12.6849 92.9922 12.2734C93.0651 11.862 93.1719 11.4688 93.3125 11.0938C93.4583 10.7188 93.638 10.3724 93.8516 10.0547C94.0703 9.73177 94.3281 9.45312 94.625 9.21875C94.9271 8.98438 95.2682 8.80208 95.6484 8.67188C96.0286 8.53646 96.4557 8.46875 96.9297 8.46875C97.4974 8.46875 98.0052 8.55729 98.4531 8.73438C98.901 8.90625 99.2865 9.15365 99.6094 9.47656C99.9323 9.79427 100.19 10.1771 100.383 10.625C100.581 11.0729 100.711 11.5677 100.773 12.1094H99.3281C99.2812 11.7656 99.2005 11.4453 99.0859 11.1484C98.9714 10.8516 98.8177 10.5911 98.625 10.3672C98.4323 10.1432 98.1953 9.96875 97.9141 9.84375C97.638 9.71354 97.3099 9.64844 96.9297 9.64844C96.5859 9.64844 96.2812 9.70573 96.0156 9.82031C95.7552 9.92969 95.5286 10.0807 95.3359 10.2734C95.1484 10.4661 94.9896 10.6901 94.8594 10.9453C94.7344 11.2005 94.6328 11.4714 94.5547 11.7578C94.4766 12.0443 94.4193 12.3385 94.3828 12.6406C94.3516 12.9375 94.3359 13.2266 94.3359 13.5078V15.1094C94.3359 15.3906 94.3516 15.6823 94.3828 15.9844C94.4193 16.2812 94.4766 16.5755 94.5547 16.8672C94.6328 17.1536 94.7344 17.4245 94.8594 17.6797C94.9844 17.9349 95.1432 18.1615 95.3359 18.3594C95.5286 18.5521 95.7552 18.7057 96.0156 18.8203C96.276 18.9297 96.5807 18.9844 96.9297 18.9844C97.3099 18.9844 97.638 18.9245 97.9141 18.8047C98.1953 18.6849 98.4323 18.5182 98.625 18.3047C98.8177 18.0859 98.9714 17.8307 99.0859 17.5391C99.2005 17.2422 99.2812 16.9219 99.3281 16.5781H100.773Z" fill="#60FFD9"/>
</svg>
